<?xml version="1.0" encoding="UTF-8"?>
<svg width="23px" height="19px" viewBox="0 0 23 19" version="1.1" xmlns="http://www.w3.org/2000/svg" xmlns:xlink="http://www.w3.org/1999/xlink">
    <!-- Generator: sketchtool 52.5 (67469) - http://www.bohemiancoding.com/sketch -->
    <title>A4661C0A-51F1-41CE-AEBD-F4600919CA4B</title>
    <desc>Created with sketchtool.</desc>
    <g id="alisontravel.eu-copy" stroke="none" stroke-width="1" fill="none" fill-rule="evenodd" opacity="0.295340402">
        <g id="Mobile---Home" transform="translate(-306.000000, -235.000000)" fill="#000000">
            <path d="M326.570625,242.307692 C325.593125,238.122821 321.913125,235 317.5,235 C314.198542,235 311.309167,236.753846 309.646458,239.384615 L311.448125,239.384615 C312.9,237.611282 315.05625,236.461538 317.5,236.461538 C321.112917,236.461538 324.126875,238.941282 325.070833,242.307692 L323.25,242.307692 L326.125,246.692308 L329,242.307692 L326.570625,242.307692 L326.570625,242.307692 Z M317.5,252.538462 C313.887083,252.538462 310.873125,250.058718 309.929167,246.692308 L311.75,246.692308 L308.875,242.307692 L306,246.692308 L308.429375,246.692308 C309.406875,250.877179 313.086875,254 317.5,254 C320.801458,254 323.690833,252.245667 325.353542,249.615385 L323.551875,249.615385 C322.1,251.383846 319.94375,252.538462 317.5,252.538462 L317.5,252.538462 Z" id="Fill-637"></path>
        </g>
    </g>
</svg>