<?xml version="1.0" encoding="UTF-8"?>
<svg width="18px" height="18px" viewBox="0 0 18 18" version="1.1" xmlns="http://www.w3.org/2000/svg" xmlns:xlink="http://www.w3.org/1999/xlink">
    <!-- Generator: sketchtool 52.5 (67469) - http://www.bohemiancoding.com/sketch -->
    <title>ED7F7F4C-6DC1-44D8-B9D8-26DE305149C1</title>
    <desc>Created with sketchtool.</desc>
    <g id="alisontravel.eu-copy" stroke="none" stroke-width="1" fill="none" fill-rule="evenodd" opacity="0.301037016">
        <g id="Mobile---Home" transform="translate(-222.000000, -235.000000)" fill="#000000">
            <path d="M238.210413,237.97688 L234.498161,241.692356 L234.141934,242.052281 L234.171932,242.55805 C234.231928,243.615705 234.348171,245.51281 234.445664,247.136222 C234.531908,248.58342 234.614403,249.948136 234.621902,250.064362 C234.621902,250.146844 234.625652,250.165591 234.550657,250.255572 C234.385668,250.45803 234.074439,250.799208 233.811956,251.084149 C233.406983,249.989377 232.55579,247.676109 232.083322,246.382629 L231.479612,244.7176 L230.227196,245.970215 L227.928599,248.189752 L227.60987,248.508436 L227.598621,248.962091 C227.591122,249.322016 227.591122,249.970256 227.594871,250.544262 L227.594871,251.429077 C227.61737,251.46282 227.639868,251.504062 227.662367,251.537805 L227.591122,251.504062 L227.594871,251.429077 C227.564873,251.380337 227.534875,251.335347 227.504877,251.286232 C227.039908,250.544262 226.398701,249.520725 226.203714,249.202041 L226.061224,248.96584 L225.82499,248.82337 C225.000045,248.324724 224.092605,247.754843 223.511394,247.379921 L223.496395,247.379921 L223.470147,247.353676 L223.447648,247.338305 L223.470147,247.353676 L223.511394,247.379921 L223.533892,247.379921 C223.71388,247.379921 224.01386,247.38367 224.351338,247.387419 C224.793808,247.394918 225.292525,247.398667 225.675,247.398667 L226.057474,247.398667 L226.507444,247.387419 L226.826173,247.064986 L229.042275,244.777963 L230.290941,243.529473 L228.633552,242.91835 C227.392385,242.460946 225.011294,241.572381 223.897618,241.152093 C224.182599,240.890023 224.527576,240.575089 224.726313,240.409748 C224.782559,240.361383 224.827556,240.338888 224.857554,240.338888 L224.895052,240.338888 C225.022543,240.346386 226.56369,240.447615 228.056091,240.545095 C229.638485,240.650073 231.427116,240.766299 232.443298,240.830035 L232.953264,240.860029 L233.31324,240.499729 L237.021742,236.784628 C237.591704,236.214747 238.154167,236.128515 238.439148,236.128515 C238.622885,236.128515 238.750377,236.162258 238.817872,236.188502 C238.900367,236.402208 239.00911,237.178296 238.210413,237.97688 L238.210413,237.97688 Z M239.624068,235.38242 C239.406583,235.164966 238.971612,235 238.439148,235 C237.771692,235 236.954247,235.254947 236.223045,235.986045 L232.514543,239.701521 C230.425932,239.570298 225.07504,239.214122 224.943798,239.210373 L224.857554,239.210373 C224.677566,239.210373 224.366337,239.244116 224.010111,239.536555 C223.593888,239.885232 222.723946,240.702562 222.723946,240.702562 C222.513961,240.912518 222.408968,241.174964 222.435216,241.418663 C222.450215,241.568632 222.52896,241.838575 222.892685,241.981046 C223.11392,242.067278 226.623686,243.383253 228.247328,243.979379 L226.031226,246.270152 C225.933732,246.270152 225.809991,246.273901 225.675,246.273901 C225.000045,246.273901 223.953864,246.251406 223.533892,246.251406 L223.402651,246.251406 C223.27516,246.255155 223.008927,246.191418 222.311474,246.775922 L222.262727,246.821287 C222.052741,247.031243 222.003995,247.2412 222.000245,247.379921 C221.996495,247.522391 222.033993,247.724849 222.240229,247.889815 C222.363971,247.991044 223.946365,249.007082 225.243778,249.790669 C225.555008,250.300562 226.983662,252.576338 227.058657,252.700062 C227.1674,252.887523 227.347388,252.992502 227.561124,253 L227.576123,253 C227.786109,253 227.999844,252.895022 228.206081,252.692189 C228.798541,252.002708 228.716047,251.714018 228.719796,251.594043 C228.727296,251.215372 228.712297,249.618205 228.727296,248.988336 L231.025892,246.772547 C231.614603,248.388461 232.897017,251.867736 232.983262,252.092689 C233.125752,252.456363 233.395734,252.535097 233.545724,252.550094 L233.616969,252.553843 C233.841954,252.553843 234.070689,252.448865 234.258177,252.261404 C234.258177,252.261404 235.075622,251.395334 235.420599,250.971673 C235.765576,250.55176 235.754327,250.191835 235.746827,250.02312 C235.743078,249.903145 235.416849,244.575505 235.296857,242.490939 L239.00536,238.775463 C240.321522,237.455738 240.111536,235.869819 239.624068,235.38242 L239.624068,235.38242 Z" id="Fill-353"></path>
        </g>
    </g>
</svg>