<?xml version="1.0" encoding="UTF-8"?>
<svg width="18px" height="18px" viewBox="0 0 18 18" version="1.1" xmlns="http://www.w3.org/2000/svg" xmlns:xlink="http://www.w3.org/1999/xlink">
    <!-- Generator: sketchtool 52.5 (67469) - http://www.bohemiancoding.com/sketch -->
    <title>96ABED49-98C1-4774-85B9-64101F1F2EA3</title>
    <desc>Created with sketchtool.</desc>
    <g id="alisontravel.eu-copy" stroke="none" stroke-width="1" fill="none" fill-rule="evenodd" opacity="0.299269903">
        <g id="Mobile---Home" transform="translate(-135.000000, -235.000000)" fill="#000000">
            <path d="M149.625,246.25 L150.75,246.25 L150.75,245.121625 L149.625,245.121625 L149.625,246.25 Z M141.75,242.875 L146.25,242.875 L146.25,241.75 L141.75,241.75 L141.75,242.875 Z M149.625,242.875 L150.75,242.875 L150.75,241.75 L149.625,241.75 L149.625,242.875 Z M149.625,249.625 L150.75,249.625 L150.75,248.5 L149.625,248.5 L149.625,249.625 Z M148.5,239.5 L151.875,239.5 L151.875,251.875 L148.5,251.875 L148.5,239.5 Z M147.375,238.375 L147.375,251.875 L146.25,251.875 L146.25,248.5 L141.75,248.5 L141.75,251.875 L140.625,251.875 L140.625,236.125 L147.375,236.125 L147.375,238.375 L147.375,238.375 Z M142.875,249.625 L145.125,249.625 L145.125,251.875 L142.875,251.875 L142.875,249.625 Z M136.125,239.5 L139.5,239.5 L139.5,251.875 L136.125,251.875 L136.125,239.5 Z M148.5,238.375 L148.5,235 L139.5,235 L139.5,238.375 L135,238.375 L135,253 L153,253 L153,238.375 L148.5,238.375 L148.5,238.375 Z M141.75,246.25 L146.25,246.25 L146.25,245.121625 L141.75,245.121625 L141.75,246.25 Z M137.25,249.625 L138.375,249.625 L138.375,248.5 L137.25,248.5 L137.25,249.625 Z M137.25,246.25 L138.375,246.25 L138.375,245.121625 L137.25,245.121625 L137.25,246.25 Z M137.25,242.875 L138.375,242.875 L138.375,241.75 L137.25,241.75 L137.25,242.875 Z M141.75,239.5 L146.25,239.5 L146.25,238.375 L141.75,238.375 L141.75,239.5 Z" id="Fill-111"></path>
        </g>
    </g>
</svg>