<?xml version="1.0" encoding="UTF-8"?>
<svg width="20px" height="19px" viewBox="0 0 20 19" version="1.1" xmlns="http://www.w3.org/2000/svg" xmlns:xlink="http://www.w3.org/1999/xlink">
    <!-- Generator: sketchtool 52.5 (67469) - http://www.bohemiancoding.com/sketch -->
    <title>F9D10A33-EAE2-4DF8-8F17-01FB6221B515</title>
    <desc>Created with sketchtool.</desc>
    <g id="alisontravel.eu-copy" stroke="none" stroke-width="1" fill="none" fill-rule="evenodd">
        <g id="Mobile---Home" transform="translate(-48.000000, -235.000000)" fill="#FFFFFF">
            <path d="M63,247.033333 C63,247.379133 63.2795833,247.662444 63.625,247.662444 C63.97,247.662444 64.25,247.379133 64.25,247.033333 L64.25,238.795778 C64.25,238.449556 63.97,238.162444 63.625,238.162444 C63.2795833,238.162444 63,238.449556 63,238.795778 L63,247.033333 L63,247.033333 Z M66.75,250.829111 L63,248.933333 L58.625,251.466667 L53,250.2 L49.25,252.1 L49.25,239.429111 L53,237.529111 L58.625,240.066667 L63,236.262444 L66.75,238.795778 L66.75,250.829111 L66.75,250.829111 Z M63,235 L58.625,238.795778 L53,236.262444 L48,238.783111 L48,254 L53,251.466667 L58.625,252.729111 L63,250.2 L68,252.729111 L68,238.162444 L63,235 L63,235 Z M53.625,239.429111 C53.2795833,239.429111 53,239.716222 53,240.066667 L53,248.3 C53,248.6458 53.2795833,248.933333 53.625,248.933333 C53.97,248.933333 54.25,248.6458 54.25,248.3 L54.25,240.066667 C54.25,239.716222 53.97,239.429111 53.625,239.429111 L53.625,239.429111 Z M58.625,241.333333 C58.2795833,241.333333 58,241.616222 58,241.962444 L58,248.933333 C58,249.279133 58.2795833,249.562444 58.625,249.562444 C58.97,249.562444 59.25,249.279133 59.25,248.933333 L59.25,241.962444 C59.25,241.616222 58.97,241.333333 58.625,241.333333 L58.625,241.333333 Z" id="Fill-65"></path>
        </g>
    </g>
</svg>